<?xml version="1.0" encoding="UTF-8" standalone="no"?>
<svg xmlns="http://www.w3.org/2000/svg" version="1.1" viewBox="0 0 560 164">
 <defs>
  <radialGradient id="radialGradient4398" gradientUnits="userSpaceOnUse" cy="-12.89" cx="113" gradientTransform="matrix(-4.3416e-8,1.9611,-1.9778,2.8494e-8,3.507,-200.6)" r="59.662">
   <stop stop-color="#fff" stop-opacity=".098039" offset="0"/>
   <stop stop-color="#fff" stop-opacity="0" offset="1"/>
  </radialGradient>
 </defs>
 <rect rx="20" ry="20" height="164" width="560" y="0" x="0"/>
 <g fill="#fff">
  <path d="m197.26 43.456v-6.6817h-5.4987v-2.766h8.8312v10.681q-1.9495 1.383-4.299 2.0995-2.3494 0.69983-5.0154 0.69983-5.8319 0-9.1311-3.3992-3.2825-3.4158-3.2825-9.4977 0-6.0985 3.2825-9.4977 3.2992-3.4158 9.1311-3.4158 2.4327 0 4.6155 0.59985 2.1995 0.59985 4.049 1.7662v3.5825q-1.8662-1.5829-3.9657-2.3828-2.0995-0.7998-4.4156-0.7998-4.5656 0-6.865 2.5494-2.2828 2.5494-2.2828 7.5982 0 5.0321 2.2828 7.5815 2.2994 2.5494 6.865 2.5494 1.7829 0 3.1826-0.29993 1.3997-0.31659 2.516-0.96643z"/>
  <path d="m206.76 22.128h15.729v2.8326h-12.364v7.3649h11.847v2.8326h-11.847v9.0145h12.664v2.8326h-16.029v-24.877z"/>
  <path d="m224.91 22.128h21.045v2.8326h-8.8312v22.045h-3.3825v-22.045h-8.8312v-2.8326z"/>
  <path d="m260.08 22.128h3.3658v24.877h-3.3658v-24.877z"/>
  <path d="m266.7 22.128h21.045v2.8326h-8.8312v22.045h-3.3825v-22.045h-8.8312v-2.8326z"/>
  <path d="m311.97 24.41q-3.6658 0-5.8319 2.7327-2.1495 2.7327-2.1495 7.4482 0 4.6988 2.1495 7.4315 2.1661 2.7327 5.8319 2.7327t5.7986-2.7327q2.1495-2.7327 2.1495-7.4315 0-4.7155-2.1495-7.4482-2.13-2.732-5.8-2.732zm0-2.7327q5.2321 0 8.3646 3.5158 3.1326 3.4992 3.1326 9.3977 0 5.8819-3.1326 9.3977-3.1326 3.4992-8.3646 3.4992-5.2487 0-8.398-3.4992-3.1326-3.4991-3.1326-9.3977t3.1326-9.3977q3.1492-3.5158 8.398-3.5158z"/>
  <path d="m328.73 22.128h4.5322l11.031 20.812v-20.812h3.2659v24.877h-4.5322l-11.031-20.812v20.812h-3.2659v-24.877z"/>
  <path d="m228.68 73.18v18.062h-2.1533q-0.9668-4.2627-1.8457-6.46-0.87891-2.1973-2.373-3.8672-4.1309-4.7022-16.392-4.7022-3.4277 0-4.6143 0.8789-1.1426 0.83497-1.1426 3.3398v20.918q6.7236 0 9.624-2.8564t4.1309-10.591h2.2412v30.454h-2.2412q-0.96679-7.8223-3.9111-10.811-2.9443-3.0322-9.8438-3.1641v20.962q0 3.7354 1.8457 4.9658 1.8457 1.1865 8.042 1.4502v2.2412h-32.388v-2.2412q5.0098-0.52734 6.46-1.7139 1.4502-1.1865 1.4502-4.7022v-43.55q0-3.4717-1.626-4.79-1.626-1.3184-6.2842-1.582v-2.2412h51.021z"/>
  <path d="m254.08 108.16v10.459h-21.885v-10.459h21.885z"/>
  <path d="m266.87 125.83v-44.385q0-3.0762-1.582-4.3506t-5.8887-1.6699v-2.2412h27.422q15.601 0 24.478 7.9541 8.9209 7.9102 8.9209 21.797 0 13.975-8.9209 22.544-8.9209 8.5254-23.467 8.5254h-28.433v-2.2412q3.9111-0.13183 5.669-1.5381 1.8018-1.4062 1.8018-4.3945zm14.546-46.45v46.274q0 3.0322 1.0986 4.1309 1.0986 1.0547 4.1309 1.0547 8.6133 0 13.228-6.1963 2.1973-3.0322 3.4277-8.4814 1.2744-5.4492 1.2744-11.865 0-11.602-3.6914-18.896-4.5703-9.1846-14.15-9.1846-5.3174 0-5.3174 3.1641z"/>
  <path d="m342.77 92.51v7.3828q3.1641-4.5264 5.9766-6.5039 2.8564-1.9775 6.1963-1.9775 3.1641 0 5.2295 2.0215 2.0654 1.9775 2.0654 5.0098 0 2.6367-1.582 4.3506-1.582 1.6699-4.0869 1.6699-1.7578 0-2.9443-0.70312-1.1865-0.70313-2.4609-2.5049-1.4502-2.1094-2.5049-2.1094-2.2412 0-3.8672 2.5488-1.626 2.5049-1.626 6.0205v17.007q0 4.1748 1.1865 5.5371 1.2305 1.3184 5.3613 1.582v2.1533h-23.95v-2.1533q2.9883-0.52734 3.9111-1.582 0.96679-1.0547 0.96679-3.8232v-26.455q0-2.7246-1.0107-3.8232-0.9668-1.0986-3.8672-1.4941v-2.1533h17.007z"/>
  <path d="m384.6 91.42q8.7012 0 14.458 6.2842 5.8008 6.2402 5.8008 15.688 0 9.4043-5.8008 15.645-5.7568 6.2402-14.458 6.2402-8.833 0-14.59-6.2402-5.7568-6.2402-5.7568-15.908 0-9.1846 5.8887-15.425 5.8887-6.2842 14.458-6.2842zm0.0879 2.8125q-2.8564 0-4.3945 1.8896-1.4941 1.8457-2.1533 6.1963-0.65918 4.3506-0.65918 12.437 0 9.8877 1.5381 13.799 1.582 3.9111 5.5811 3.9111 3.9111 0 5.4492-4.0869 1.582-4.0869 1.582-14.458 0-11.074-1.5381-15.381-1.4941-4.3066-5.4053-4.3066z"/>
  <path d="m425.73 92.51v34.189q0 2.5488 0.92285 3.6914 0.92285 1.0986 3.2959 1.4502v2.1533h-21.489v-2.1533q3.0762-0.74707 3.9111-1.6699 0.83497-0.9668 0.83497-3.7354v-26.455q0-2.7686-0.87891-3.7354t-3.8672-1.582v-2.1533h17.271zm-11.25-18.633q2.0654-2.0654 4.9658-2.0654t4.8779 2.0654q2.0215 2.0654 2.0215 4.9658 0 2.9443-2.0215 4.9219-1.9775 1.9775-4.9658 1.9775t-4.9658-1.9775-1.9775-5.0098q0-2.8564 2.0654-4.8779z"/>
  <path d="m462.47 135.19v-5.8447q-3.1641 3.3398-5.7568 4.6582-2.5928 1.2744-6.1963 1.2744-7.0752 0-11.689-5.9766-4.6142-6.0205-4.6142-15.205 0-9.7559 4.9219-16.216 4.9219-6.46 12.349-6.46 3.0762 0 5.4492 1.2305t5.2734 4.3506v-16.479q0-3.0762-1.1865-3.9551-1.1426-0.87891-5.669-1.2305v-2.1533h19.38v51.724q0 2.8564 1.0986 3.9551 1.1426 1.0986 4.2188 1.2744v2.0654l-5.5811 0.70312q-6.5478 0.70313-11.997 2.2852zm-0.26367-11.25v-21.885q-0.9668-2.5488-2.9004-4.043-1.8896-1.5381-4.1309-1.5381-3.9111 0-5.8008 4.1309-1.8457 4.0869-1.8457 12.788 0 8.5693 1.7139 12.7 1.7139 4.1309 5.3174 4.1309 2.9883 0 5.669-3.0762 0.79102-0.87891 1.3623-1.8457 0.61524-0.96679 0.61524-1.3623z"/>
 </g>
 <path d="m144.34 23.797-11.18 14.473" stroke="#769616" stroke-linecap="round" stroke-width="6.579" fill="#8ab000"/>
 <path d="m144.29 20.5c1.1933 0.0316 2.0045 0.49736 2.5809 1.1805-5.334 6.3392-6.2326 7.3463-13.514 16.372-2.683 3.471-5.4779 1.6771-2.7949-1.7939l11.184-14.474c0.60261-0.80421 1.5397-1.2579 2.5442-1.285z" fill-opacity=".29804" fill="#fff"/>
 <path d="m146.89 21.713c0.32604 0.38921 1.4768 2.1174 0.0592 4.0952l-11.184 14.474c-2.683 3.471-3.026-1.6113-3.026-1.6113s9.8275-11.868 14.151-16.958z" fill-opacity=".2" fill="#263238"/>
 <path d="m145.01 21.118c1.1531 0 2.526 0.37263 2.169 2.1016-0.27253 1.32-12.265 15.985-12.265 15.985-2.683 3.471-6.5618 1.7797-3.8788-1.6908l11.143-14.402c0.68484-0.76316 1.6014-1.9568 2.832-1.9942z" fill="#8ab000"/>
 <path d="m31.655 23.797 11.185 14.473" stroke="#769616" stroke-linecap="round" stroke-width="6.579" fill="#8ab000"/>
 <path d="m31.714 20.5c-1.1933 0.0316-2.0045 0.49736-2.5809 1.1805 5.334 6.3392 6.2326 7.3463 13.514 16.372 2.683 3.471 5.4779 1.6771 2.7949-1.7939l-11.184-14.472c-0.60261-0.80421-1.5397-1.2579-2.5442-1.285z" fill-opacity=".29804" fill="#fff"/>
 <path d="m29.111 21.713c-0.32604 0.38921-1.4768 2.1174-0.0592 4.0952l11.184 14.474c2.683 3.471 3.026-1.6113 3.026-1.6113s-9.8275-11.868-14.151-16.958z" fill-opacity=".2" fill="#263238"/>
 <path d="m30.995 21.118c-1.1531 0-2.526 0.37263-2.169 2.1016 0.27253 1.32 12.265 15.985 12.265 15.985 2.683 3.471 6.5618 1.7797 3.8788-1.6908l-11.143-14.402c-0.685-0.763-1.602-1.957-2.832-1.994z" fill="#8ab000"/>
 <rect rx="7.8948" ry="7.8947" height="34" width="100" y="33" x="38" fill="#aeea00"/>
 <rect fill-opacity=".2" rx="7.8948" ry="7.8947" height="26.316" width="100" y="40.684" x="38" fill="#263238"/>
 <rect fill-opacity=".29804" rx="7.8948" ry="7.8947" height="26.316" width="100" y="33.007" x="38" fill="#fff"/>
 <rect rx="7.8948" ry="6.462" height="28.002" width="100" y="36.002" x="38" fill="#aeea00"/>
 <rect rx="7.8948" ry="7.8947" height="68" width="100" y="70" x="38" fill="#1976d2"/>
 <rect fill-opacity=".2" rx="7.8948" ry="7.8947" height="34.21" width="100" y="103.79" x="38" fill="#263238"/>
 <rect fill-opacity=".2" rx="7.8948" ry="7.8947" height="34.21" width="100" y="69.79" x="38" fill="#fff"/>
 <rect rx="7.8948" ry="7.1538" height="62" width="100" y="73" x="38" fill="#1976d2"/>
 <path fill="#0d47a1" d="m88 87.61c-7.5807 0-13.999 5.2228-15.877 12.238h8.455c1.4587-2.593 4.1977-4.3431 7.4219-4.3431 4.7703 0 8.5527 3.7824 8.5527 8.5526s-3.7824 8.5526-8.5527 8.5526c-3.4405 0-6.3454-1.9808-7.7097-4.8674h-8.3008c1.6901 7.2783 8.2418 12.762 16.011 12.762 9.0369 0 16.447-7.4105 16.447-16.447 0-9.0369-7.4105-16.447-16.447-16.447z"/>
 <circle stroke-width="5" stroke-linecap="round" stroke="#0d47a1" cy="104.06" cx="88" r="25.132" fill="none"/>
 <ellipse fill-opacity=".2" rx="8.8816" ry="10.197" cy="50.441" cx="62.67" fill="#263238"/>
 <circle cy="51.757" cx="62.67" r="8.8816" fill="#fff"/>
 <ellipse fill-opacity=".2" rx="8.8816" ry="10.197" cy="50.441" cx="113.99" fill="#263238"/>
 <circle cy="51.757" cx="113.99" r="8.8816" fill="#fff"/>
 <path fill="url(#radialGradient4398)" d="m31.715 20.473a3.2898 3.2898 0 0 0 -2.6621 5.3359l9.4746 12.262c-0.33497 0.87752-0.52734 1.8262-0.52734 2.8242v18.211c0 4.3737 3.5208 7.8945 7.8945 7.8945h84.211c4.3737 0 7.8945-3.5209 7.8945-7.8945v-18.211c0-0.99858-0.19005-1.9482-0.52539-2.8262l9.4727-12.26a3.2898 3.2898 0 0 0 -2.4336 -5.334 3.2898 3.2898 0 0 0 -2.7715 1.3106l-9.0137 11.666c-0.81-0.293-1.69-0.456-2.61-0.456h-84.211c-0.92137 0-1.8004 0.1636-2.6211 0.45117l-9.02-11.666a3.2898 3.2898 0 0 0 -2.543 -1.3125zm14.18 49.527c-4.3737 0-7.8945 3.5208-7.8945 7.8945v52.211c0 4.3737 3.5208 7.8945 7.8945 7.8945h84.211c4.3737 0 7.8945-3.5208 7.8945-7.8945v-52.211c0.01-4.368-3.51-7.889-7.88-7.889h-84.211z"/>
</svg>
