<?xml version="1.0" encoding="UTF-8" standalone="no"?>

<svg
   width="564"
   height="168"
   id="svg8502"
   version="1.1"
   xmlns="http://www.w3.org/2000/svg"
   xmlns:svg="http://www.w3.org/2000/svg"
   xmlns:rdf="http://www.w3.org/1999/02/22-rdf-syntax-ns#"
   xmlns:cc="http://creativecommons.org/ns#"
   xmlns:dc="http://purl.org/dc/elements/1.1/">
  <defs
     id="defs8504" />
  <g
     id="layer1"
     transform="translate(-330,-353.36218)">
    <rect
       style="color:#000000;display:inline;overflow:visible;visibility:visible;fill:#000000;fill-opacity:1;fill-rule:nonzero;stroke:#000000;stroke-width:4;stroke-miterlimit:4;stroke-dasharray:none;stroke-opacity:1;marker:none;enable-background:accumulate"
       id="rect3007"
       width="560"
       height="164"
       x="332"
       y="355.36218"
       rx="20"
       ry="20" />
    <g
       aria-label="GET IT ON"
       id="text3013"
       style="line-height:0%;font-family:'DejaVu Sans';-inkscape-font-specification:'DejaVu Sans';letter-spacing:0px;word-spacing:0px;display:inline;overflow:visible;fill:#ffffff;stroke-width:1px;marker:none;enable-background:accumulate">
      <path
         d="m 532.97876,400.53409 q -2.03284,0.9331 -4.44891,1.63293 -2.39942,0.68317 -4.64887,0.68317 -2.89929,0 -5.31537,-0.79981 -2.41607,-0.7998 -4.11566,-2.39941 -1.71625,-1.61627 -2.64935,-4.03235 -0.93311,-2.43274 -0.93311,-5.68194 0,-5.94855 3.46582,-9.38105 3.48249,-3.44915 9.54767,-3.44915 2.11615,0 4.31561,0.51654 2.21613,0.49987 4.76551,1.71624 v 3.91571 h -0.29993 q -0.51654,-0.3999 -1.49963,-1.04974 -0.9831,-0.64984 -1.93286,-1.08307 -1.14972,-0.51654 -2.61603,-0.84979 -1.44965,-0.34992 -3.2992,-0.34992 -4.16565,0 -6.59839,2.68268 -2.41607,2.66602 -2.41607,7.23157 0,4.81549 2.53271,7.49817 2.53272,2.66602 6.89832,2.66602 1.59961,0 3.18255,-0.31659 1.59961,-0.31659 2.79932,-0.81647 v -6.08185 h -6.64838 v -2.89929 h 9.91425 z"
         style="font-size:34.125px;line-height:1;font-family:'Noto Sans Adlam';-inkscape-font-specification:'Noto Sans Adlam'"
         id="path3794" />
      <path
         d="m 555.09003,402.36697 h -16.34601 v -24.8106 h 16.34601 v 2.93261 h -13.04682 v 6.79834 h 13.04682 v 2.93262 h -13.04682 v 9.21442 h 13.04682 z"
         style="font-size:34.125px;line-height:1;font-family:'Noto Sans Adlam';-inkscape-font-specification:'Noto Sans Adlam'"
         id="path3796" />
      <path
         d="m 578.03442,380.48898 h -8.8645 v 21.87799 h -3.29919 v -21.87799 h -8.8645 v -2.93261 h 21.02819 z"
         style="font-size:34.125px;line-height:1;font-family:'Noto Sans Adlam';-inkscape-font-specification:'Noto Sans Adlam'"
         id="path3798" />
      <path
         d="m 602.1452,402.36697 h -9.7976 v -2.53271 h 3.2492 v -19.74518 h -3.2492 v -2.53271 h 9.7976 v 2.53271 h -3.2492 v 19.74518 h 3.2492 z"
         style="font-size:34.125px;line-height:1;font-family:'Noto Sans Adlam';-inkscape-font-specification:'Noto Sans Adlam'"
         id="path3800" />
      <path
         d="m 625.4895,380.48898 h -8.8645 v 21.87799 h -3.29919 v -21.87799 h -8.86451 v -2.93261 h 21.0282 z"
         style="font-size:34.125px;line-height:1;font-family:'Noto Sans Adlam';-inkscape-font-specification:'Noto Sans Adlam'"
         id="path3802" />
      <path
         d="m 659.3479,380.40567 q 1.5163,1.66626 2.3161,4.08234 0.81647,2.41607 0.81647,5.48199 0,3.06592 -0.83313,5.49866 -0.81647,2.41608 -2.29944,4.03235 -1.53296,1.68292 -3.63245,2.53271 -2.08282,0.84979 -4.7655,0.84979 -2.61603,0 -4.7655,-0.86645 -2.13281,-0.86646 -3.63245,-2.51605 -1.49963,-1.6496 -2.3161,-4.04901 -0.7998,-2.39942 -0.7998,-5.482 0,-3.03259 0.7998,-5.43201 0.79981,-2.41607 2.33276,-4.13232 1.46631,-1.63293 3.63245,-2.49939 2.1828,-0.86645 4.74884,-0.86645 2.66602,0 4.78217,0.88311 2.13281,0.86646 3.61578,2.48273 z m -0.29993,9.56433 q 0,-4.83215 -2.16613,-7.44818 -2.16614,-2.63269 -5.91523,-2.63269 -3.78241,0 -5.94854,2.63269 -2.14948,2.61603 -2.14948,7.44818 0,4.88214 2.19946,7.48151 2.19947,2.5827 5.89856,2.5827 3.6991,0 5.8819,-2.5827 2.19946,-2.59937 2.19946,-7.48151 z"
         style="font-size:34.125px;line-height:1;font-family:'Noto Sans Adlam';-inkscape-font-specification:'Noto Sans Adlam'"
         id="path3804" />
      <path
         d="m 686.64124,402.36697 h -4.08234 l -11.7638,-22.19458 v 22.19458 h -3.08258 v -24.8106 h 5.11542 l 10.73071,20.26171 v -20.26171 h 3.08259 z"
         style="font-size:34.125px;line-height:1;font-family:'Noto Sans Adlam';-inkscape-font-specification:'Noto Sans Adlam'"
         id="path3806" />
    </g>
    <g
       aria-label="GitHub"
       id="text5902"
       style="font-weight:bold;line-height:0%;font-family:Rokkitt;-inkscape-font-specification:'Rokkitt Bold';letter-spacing:0px;word-spacing:0px;display:inline;overflow:visible;fill:#ffffff;stroke-width:1px;marker:none;enable-background:accumulate">
      <path
         d="m 572.59857,485.72949 q -4.27246,1.66626 -11.32202,3.33252 -7.04956,1.62354 -14.0564,1.62354 -16.23535,0 -25.42114,-8.80127 -9.18579,-8.844 -9.18579,-24.39575 0,-14.82544 9.27124,-23.88306 9.27124,-9.10034 25.84839,-9.10034 6.28052,0 11.96289,1.15356 5.68237,1.11084 12.64648,4.48609 v 14.91088 h -1.83715 q -1.19629,-0.89721 -3.50342,-2.52075 -2.30713,-1.66626 -4.44336,-2.81982 -2.47803,-1.36719 -5.81055,-2.34986 -3.28979,-0.98266 -7.00683,-0.98266 -4.35791,0 -7.90406,1.28174 -3.54614,1.28173 -6.36596,3.93066 -2.69165,2.56348 -4.27246,6.53687 -1.53809,3.93066 -1.53809,9.10034 0,10.55298 5.59692,16.1499 5.59693,5.59692 16.53443,5.59692 0.93994,0 2.05078,-0.0427 1.15356,-0.0427 2.0935,-0.12817 v -12.47559 h -12.6892 V 454.3269 h 29.3518 z"
         style="font-size:87.5px;line-height:100%;font-family:'Roboto Slab';-inkscape-font-specification:'Roboto Slab Bold'"
         id="path923" />
      <path
         d="m 601.77948,489.36108 h -15.38086 v -47.97973 h 15.38086 z m 0.42725,-54.81567 h -16.23536 v -11.66382 h 16.23536 z"
         style="font-size:87.5px;line-height:100%;font-family:'Roboto Slab';-inkscape-font-specification:'Roboto Slab Bold'"
         id="path925" />
      <path
         d="m 646.98212,488.93384 q -2.47803,0.64087 -5.25513,0.98266 -2.7771,0.38453 -6.79321,0.38453 -8.97217,0 -13.37281,-3.6316 -4.35791,-3.63159 -4.35791,-12.43286 v -22.43042 h -6.32324 v -10.4248 h 6.32324 v -13.7146 h 15.38086 v 13.7146 h 14.3982 v 10.4248 h -14.3982 v 17.0044 q 0,2.52075 0.0427,4.40063 0.0427,1.87988 0.68359,3.37525 0.59815,1.49536 2.09351,2.39257 1.53808,0.8545 4.44336,0.8545 1.19629,0 3.11889,-0.5127 1.96534,-0.51269 2.73438,-0.93994 h 1.28174 z"
         style="font-size:87.5px;line-height:100%;font-family:'Roboto Slab';-inkscape-font-specification:'Roboto Slab Bold'"
         id="path927" />
      <path
         d="m 714.01703,489.36108 h -16.40625 v -28.02734 h -24.22485 v 28.02734 h -16.40625 v -63.61694 h 16.40625 v 23.28491 h 24.22485 v -23.28491 h 16.40625 z"
         style="font-size:87.5px;line-height:100%;font-family:'Roboto Slab';-inkscape-font-specification:'Roboto Slab Bold'"
         id="path929" />
      <path
         d="m 777.24945,489.36108 h -15.38086 v -5.29785 q -4.27246,3.24707 -7.8186,4.95606 -3.54614,1.66626 -8.45947,1.66626 -7.94678,0 -12.26197,-4.57154 -4.27246,-4.57153 -4.27246,-13.50097 v -31.23169 h 15.46631 v 23.79761 q 0,3.63159 0.21362,6.06689 0.25635,2.39258 1.11084,3.97339 0.81177,1.58081 2.43531,2.30713 1.66626,0.72632 4.61425,0.72632 1.96534,0 4.35791,-0.72632 2.39258,-0.72632 4.61426,-2.13623 v -34.00879 h 15.38086 z"
         style="font-size:87.5px;line-height:100%;font-family:'Roboto Slab';-inkscape-font-specification:'Roboto Slab Bold'"
         id="path931" />
      <path
         d="m 841.89178,464.70898 q 0,11.32203 -6.28051,18.45704 -6.2378,7.13501 -15.59449,7.13501 -4.01611,0 -7.04956,-0.8545 -3.03344,-0.85449 -5.76782,-2.47802 l -0.64087,2.39257 h -14.73999 v -66.47949 h 15.38086 v 23.49854 q 3.54614,-2.81983 7.22046,-4.57154 3.71704,-1.75171 8.54492,-1.75171 9.10034,0 14.01367,6.57959 4.91333,6.53687 4.91333,18.07251 z m -15.85083,0.29908 q 0,-6.40869 -2.17895,-9.86939 -2.17896,-3.46069 -7.77588,-3.46069 -2.17895,0 -4.48608,0.68359 -2.30713,0.64087 -4.40064,1.87989 v 24.09667 q 1.66626,0.59815 3.16162,0.81177 1.49536,0.21363 3.58887,0.21363 6.10962,0 9.10034,-3.58887 2.99072,-3.58887 2.99072,-10.7666 z"
         style="font-size:87.5px;line-height:100%;font-family:'Roboto Slab';-inkscape-font-specification:'Roboto Slab Bold'"
         id="path933" />
    </g>
    <g
       transform="matrix(1.0017681,0,0,1.0017681,68.770756,92.660249)"
       id="g5136">
      <path
         style="fill:#ffffff;fill-opacity:1;fill-rule:evenodd;stroke:none"
         d="m 350.60937,282.4375 c -33.34765,0 -60.38671,27.03516 -60.38671,60.38672 0,26.67969 17.30078,49.3164 41.29687,57.30078 3.01563,0.55859 4.125,-1.30859 4.125,-2.90625 0,-1.4375 -0.0547,-6.19531 -0.082,-11.24219 -16.80078,3.65235 -20.34375,-7.125 -20.34375,-7.125 -2.75,-6.98047 -6.70703,-8.83594 -6.70703,-8.83594 -5.48047,-3.74609 0.41406,-3.67187 0.41406,-3.67187 6.0625,0.42578 9.25781,6.22266 9.25781,6.22266 5.38282,9.23437 14.125,6.5664 17.57032,5.02343 0.54296,-3.90234 2.10937,-6.57031 3.83593,-8.07812 -13.41406,-1.52735 -27.51562,-6.70313 -27.51562,-29.84375 0,-6.59375 2.35937,-11.98047 6.22265,-16.20703 -0.625,-1.52344 -2.6914,-7.66407 0.58594,-15.98047 0,0 5.07031,-1.625 16.60938,6.1875 4.82031,-1.33594 9.98437,-2.00781 15.11718,-2.03125 5.13282,0.0234 10.30079,0.69531 15.12891,2.03125 11.52344,-7.8125 16.58984,-6.1875 16.58984,-6.1875 3.28516,8.3164 1.21875,14.45703 0.58985,15.98047 3.87109,4.22656 6.21484,9.61328 6.21484,16.20703 0,23.19531 -14.125,28.30078 -27.57422,29.79687 2.16797,1.875 4.09766,5.55078 4.09766,11.1836 0,8.07812 -0.0703,14.58203 -0.0703,16.57031 0,1.60937 1.08593,3.49219 4.14843,2.89844 23.98047,-7.9961 41.26172,-30.6211 41.26172,-57.29297 0,-33.35156 -27.03515,-60.38672 -60.38672,-60.38672"
         id="path4937" />
      <path
         style="fill:#ffffff;fill-opacity:1;fill-rule:nonzero;stroke:none"
         d="m 313.09375,369.14062 c -0.13281,0.30079 -0.60547,0.38672 -1.03516,0.1836 -0.4375,-0.19922 -0.68359,-0.60547 -0.54297,-0.91016 0.12891,-0.30859 0.60157,-0.39062 1.03907,-0.1875 0.4414,0.19922 0.6914,0.61328 0.53906,0.91406"
         id="path4939" />
      <path
         style="fill:#ffffff;fill-opacity:1;fill-rule:nonzero;stroke:none"
         d="m 315.53906,371.86719 c -0.28906,0.26562 -0.85156,0.14453 -1.23437,-0.27735 -0.39453,-0.42187 -0.46875,-0.98437 -0.17578,-1.25781 0.29687,-0.26562 0.84375,-0.14062 1.23828,0.28125 0.39453,0.42578 0.47265,0.98438 0.17187,1.25391"
         id="path4941" />
      <path
         style="fill:#ffffff;fill-opacity:1;fill-rule:nonzero;stroke:none"
         d="m 317.92187,375.34375 c -0.37109,0.25781 -0.97656,0.0156 -1.35156,-0.51953 -0.37109,-0.53906 -0.37109,-1.17969 0.008,-1.4375 0.375,-0.25781 0.97266,-0.0274 1.35157,0.5039 0.36718,0.54688 0.36718,1.19141 -0.008,1.45313"
         id="path4943" />
      <path
         style="fill:#ffffff;fill-opacity:1;fill-rule:nonzero;stroke:none"
         d="m 321.18359,378.70312 c -0.33203,0.36719 -1.03906,0.26954 -1.55468,-0.23046 -0.52735,-0.48438 -0.67579,-1.17579 -0.34375,-1.54297 0.33593,-0.36328 1.04687,-0.26172 1.5664,0.23047 0.52344,0.48828 0.6836,1.18359 0.33203,1.54296"
         id="path4945-3" />
      <path
         style="fill:#ffffff;fill-opacity:1;fill-rule:nonzero;stroke:none"
         d="m 325.68359,380.65625 c -0.14843,0.47266 -0.82812,0.6875 -1.51172,0.48828 -0.68359,-0.20703 -1.1289,-0.76172 -0.99218,-1.24219 0.14453,-0.47265 0.82422,-0.69922 1.51562,-0.48437 0.67969,0.20703 1.12891,0.75781 0.98828,1.23828"
         id="path4947-6" />
      <path
         style="fill:#ffffff;fill-opacity:1;fill-rule:nonzero;stroke:none"
         d="m 330.625,381.01953 c 0.0156,0.49609 -0.5625,0.91016 -1.28125,0.91797 -0.72266,0.0156 -1.30859,-0.38672 -1.31641,-0.875 0,-0.50391 0.57032,-0.91406 1.28907,-0.92578 0.71875,-0.0156 1.30859,0.38672 1.30859,0.88281"
         id="path4949" />
      <path
         style="fill:#ffffff;fill-opacity:1;fill-rule:nonzero;stroke:none"
         d="m 335.22266,380.23437 c 0.0859,0.48829 -0.41407,0.98438 -1.125,1.11719 -0.70313,0.12891 -1.35157,-0.17187 -1.44141,-0.65234 -0.0859,-0.5 0.42187,-0.9961 1.12109,-1.125 0.71485,-0.125 1.35547,0.16797 1.44532,0.66015"
         id="path4951-7" />
    </g>
  </g>
</svg>
